<svg width="767" height="703" viewBox="0 0 767 703" fill="none" xmlns="http://www.w3.org/2000/svg">
<path d="M622.454 253.552L696.543 229.976L698.895 700.054H613.251L622.454 679.485C581.038 530.963 622.454 253.552 622.454 253.552Z" fill="#F6CA67"/>
<path d="M643.84 542.541C643.84 432.441 666.193 343.188 693.765 343.188C694.896 343.194 696.021 343.348 697.112 343.644L698.895 700.054H663.164C651.407 663.582 643.84 606.593 643.84 542.541Z" fill="black"/>
<path d="M646.88 259.299C646.88 259.299 629.191 548.021 679.153 684.721L668.717 700.054H757.58C757.58 700.054 766.245 346.507 766.245 267.243L646.88 259.299Z" fill="#F6CA67"/>
<path d="M665.985 36.0708V73.5931L712.467 85.0176V21.6965L665.985 10.272V36.0708Z" fill="#EDEEEF"/>
<path d="M696.777 55.7083C696.777 55.7083 685.458 51.9841 681.734 57.68C681.734 57.68 677.011 52.3813 670.926 56.6579" stroke="#F6CA67" stroke-width="1.5" stroke-linecap="round" stroke-linejoin="round"/>
<path d="M692.009 48.8931C691.322 48.8931 690.766 48.3367 690.766 47.6503C690.766 46.9639 691.322 46.4075 692.009 46.4075C692.695 46.4075 693.251 46.9639 693.251 47.6503C693.251 48.3367 692.695 48.8931 692.009 48.8931Z" fill="black"/>
<path d="M672.919 48.8931C672.233 48.8931 671.677 48.3367 671.677 47.6503C671.677 46.9639 672.233 46.4075 672.919 46.4075C673.606 46.4075 674.162 46.9639 674.162 47.6503C674.162 48.3367 673.606 48.8931 672.919 48.8931Z" fill="black"/>
<path d="M678.519 55.0644V35.9111H668.924" stroke="black" stroke-width="1.5"/>
<path d="M694.35 35.9112H684.755" stroke="black" stroke-width="1.5"/>
<path d="M709.172 45.7247V52.3759C712.76 52.3759 715.668 49.4674 715.668 45.8796C715.668 45.6802 715.659 45.4831 715.642 45.2883C715.278 41.2542 709.172 41.6742 709.172 45.7247Z" fill="#EDEEEF"/>
<path d="M709.172 52.3759C712.76 52.3759 715.668 49.4675 715.668 45.8796" stroke="black" stroke-width="1.5"/>
<path d="M684.167 59.786C686.196 59.786 687.841 58.1407 687.841 56.1111" stroke="#F6CA67" stroke-width="1.5" stroke-linecap="round" stroke-linejoin="round"/>
<path d="M698.895 81.5793L712.234 84.8577" stroke="black" stroke-width="1.5"/>
<path d="M678.52 55.0795L682.716 56.111" stroke="black" stroke-width="1.5" stroke-linecap="round"/>
<path d="M622.454 152.049V253.552L766.245 288.893V175.847C766.245 135.763 738.88 100.858 699.955 91.2908H699.955C681.287 86.7027 661.547 90.9503 646.419 102.81C631.291 114.67 622.454 132.826 622.454 152.049L622.454 152.049Z" fill="#DCEAE6"/>
<path d="M706.887 47.6501C706.887 47.6501 713.897 70.6646 697.54 82.6404C682.31 93.7904 658.305 87.2624 663.985 61.1812C665.164 55.7384 665.756 50.1849 665.751 44.6158V43.0618" stroke="#F6CA67" stroke-width="1.5" stroke-linecap="round" stroke-linejoin="round"/>
<path d="M712.42 42.4707C712.42 42.4707 727.883 14.1526 704.073 9.05035C704.073 9.05035 694.391 -3.04383 680.618 2.81428C666.845 8.6724 660.231 4.56041 660.042 10.1124C659.853 15.6643 659.176 24.924 665.751 29.6482" stroke="#F6CA67" stroke-width="1.5" stroke-linecap="round" stroke-linejoin="round"/>
<path d="M702.797 42.4662L698.895 26.5584C698.895 26.5584 670.474 26.9966 665.751 19.2561" stroke="#F6CA67" stroke-width="1.5" stroke-linecap="round" stroke-linejoin="round"/>
<path d="M646.88 259.299C646.88 259.299 629.191 548.021 679.153 684.721L668.717 700.054" stroke="black" stroke-width="1.5"/>
<path d="M736.778 110.549C736.778 110.549 760.924 205.904 731.715 241.539C702.505 277.175 565.806 256.144 526.081 217.588C526.081 217.588 512.061 214.082 509.14 207.072C509.14 207.072 495.703 217.003 496.288 210.577C496.872 204.151 501.545 184.126 525.497 189.173C549.449 194.22 665.751 196.557 665.751 196.557L663.132 146.317" stroke="black" stroke-width="1.5"/>
<path d="M629.083 123.94C629.083 123.94 611.515 157.991 613.78 195.092" stroke="black" stroke-width="1.5"/>
<path d="M619.48 275.562C619.48 275.562 572.674 294.151 552.883 235.131" stroke="black" stroke-width="1.5"/>
<path d="M597.901 194.495C597.901 194.495 548.307 168.88 540.686 179.615L533.064 190.351" stroke="black" stroke-width="1.5"/>
<path d="M134.404 1.21265H453.558V205.003L556.18 307.625V700.054H597.902" stroke="black" stroke-width="1.5"/>
<path d="M544.854 702.245H0.754666" stroke="black" stroke-width="1.5"/>
<path d="M65.1059 697.963C65.1059 697.963 55.7306 681.376 79.5294 677.771C93.6712 675.585 108.142 677.331 121.358 682.819C121.358 682.819 104.771 662.626 130.733 653.972C156.695 645.318 183.379 665.511 183.379 665.511C183.379 665.511 157.416 617.192 177.609 613.586C197.802 609.98 208.62 630.894 208.62 630.894C208.62 630.894 206.456 571.037 248.284 569.594C290.113 568.152 285.786 646.039 285.786 646.039C285.786 646.039 303.815 611.422 334.104 609.98C364.394 608.538 349.249 667.965 349.249 667.965C349.249 667.965 355.018 653.972 375.211 652.529C395.404 651.087 393.962 668.012 393.962 668.012C393.962 668.012 419.924 631.615 448.771 633.779C477.618 635.942 465.358 672.001 465.358 672.001C494.926 669.837 501.417 702.245 501.417 702.245H44.1918L65.1059 697.963Z" fill="#489F8C"/>
<rect width="350.58" height="204.729" transform="matrix(-1 0 0 1 439.711 346.87)" fill="#489F8C"/>
<rect width="350.58" height="204.729" transform="matrix(-1 0 0 1 484.985 301.597)" fill="#DCEAE6"/>
<path d="M134.404 301.709V506.437L484.984 506.215" stroke="black" stroke-width="1.5"/>
<path d="M309.695 468.401C274.105 468.401 245.255 439.551 245.255 403.961C245.255 368.372 274.105 339.521 309.695 339.521C345.284 339.521 374.135 368.372 374.135 403.961C374.135 439.551 345.284 468.401 309.695 468.401Z" fill="#10886F"/>
<path opacity="0.2" d="M445.462 480.109C438.201 480.109 432.314 474.222 432.314 466.961C432.314 459.699 438.201 453.813 445.462 453.813C452.724 453.813 458.61 459.699 458.61 466.961C458.61 474.222 452.724 480.109 445.462 480.109Z" fill="#489F8C"/>
<path opacity="0.2" d="M173.927 354.11C166.666 354.11 160.779 348.224 160.779 340.962C160.779 333.701 166.666 327.814 173.927 327.814C181.189 327.814 187.075 333.701 187.075 340.962C187.075 348.224 181.189 354.11 173.927 354.11Z" fill="#489F8C"/>
<path opacity="0.2" d="M173.927 480.109C166.666 480.109 160.779 474.222 160.779 466.961C160.779 459.699 166.666 453.813 173.927 453.813C181.189 453.813 187.075 459.699 187.075 466.961C187.075 474.222 181.189 480.109 173.927 480.109Z" fill="#489F8C"/>
<path opacity="0.2" d="M445.462 354.11C438.201 354.11 432.314 348.224 432.314 340.962C432.314 333.701 438.201 327.814 445.462 327.814C452.724 327.814 458.61 333.701 458.61 340.962C458.61 348.224 452.724 354.11 445.462 354.11Z" fill="#489F8C"/>
<path d="M309.694 403.961C299.599 403.961 291.415 395.778 291.415 385.683C291.415 375.588 299.599 367.404 309.694 367.404C319.789 367.404 327.973 375.588 327.973 385.683" stroke="white" stroke-width="1.5"/>
<path d="M309.694 403.961C317.087 403.961 323.752 408.415 326.582 415.245C329.411 422.076 327.847 429.938 322.619 435.165C317.392 440.393 309.529 441.957 302.699 439.128C295.869 436.299 291.415 429.633 291.415 422.24" stroke="white" stroke-width="1.5"/>
<path d="M309.695 356.907V451.015" stroke="white" stroke-width="1.5"/>
</svg>
