<svg width="137" height="58" viewBox="0 0 137 58" fill="none" xmlns="http://www.w3.org/2000/svg">
<path d="M1.87598 31.0908C1.87598 30.9137 1.88704 30.6979 1.90918 30.4434C1.94238 30.1888 1.97005 29.9785 1.99219 29.8125L4.93066 8.39648L2.82227 7.68262L3.1543 6.30469L8.69922 5.60742L9.5293 6.05566L6.3252 29.5635C6.26986 29.9508 6.27539 30.2607 6.3418 30.4932C6.41927 30.7145 6.56868 30.8252 6.79004 30.8252C6.95605 30.8252 7.15527 30.7699 7.3877 30.6592C7.63118 30.5374 7.98535 30.2829 8.4502 29.8955L8.93164 30.9248C8.85417 31.0465 8.69368 31.2402 8.4502 31.5059C8.20671 31.7715 7.89681 32.0426 7.52051 32.3193C7.15527 32.585 6.72363 32.8174 6.22559 33.0166C5.73861 33.2269 5.20182 33.332 4.61523 33.332C4.22786 33.332 3.86816 33.2878 3.53613 33.1992C3.2041 33.1217 2.91634 32.9945 2.67285 32.8174C2.42936 32.6403 2.23568 32.4079 2.0918 32.1201C1.94792 31.8324 1.87598 31.4893 1.87598 31.0908ZM16.1035 10.6377C15.7383 10.6377 15.3841 10.5768 15.041 10.4551C14.6979 10.3333 14.3936 10.1618 14.1279 9.94043C13.8623 9.70801 13.6465 9.43132 13.4805 9.11035C13.3255 8.77832 13.248 8.40755 13.248 7.99805C13.248 7.54427 13.3477 7.1237 13.5469 6.73633C13.7461 6.34896 14.0062 6.01693 14.3271 5.74023C14.6592 5.45247 15.0244 5.23112 15.4229 5.07617C15.8324 4.91016 16.2363 4.82715 16.6348 4.82715C17.1328 4.82715 17.5589 4.89909 17.9131 5.04297C18.2673 5.18685 18.5605 5.38053 18.793 5.62402C19.0254 5.85645 19.1969 6.13867 19.3076 6.4707C19.4183 6.79167 19.4736 7.13477 19.4736 7.5C19.4736 7.97591 19.374 8.40755 19.1748 8.79492C18.9867 9.18229 18.7321 9.51432 18.4111 9.79102C18.1012 10.0566 17.7415 10.2669 17.332 10.4219C16.9336 10.5658 16.5241 10.6377 16.1035 10.6377ZM11.8701 31.1074L14.3604 30.6758V18.9551L12.1689 17.0791V15.751L17.8965 13.9746L19.0088 14.3564V30.709L21.5322 31.1074V33H11.8701V31.1074ZM24.1885 31.1074L26.3467 30.7256V18.6729L24.0391 17.2119V15.585L29.4346 13.9746L30.4639 14.3066V16.7139C30.8734 16.3376 31.3438 15.9834 31.875 15.6514C32.4173 15.3193 32.9873 15.0316 33.585 14.7881C34.1937 14.5446 34.8135 14.3509 35.4443 14.207C36.0752 14.0632 36.695 13.9857 37.3037 13.9746C38.3441 13.9635 39.2129 14.1185 39.9102 14.4395C40.6185 14.7493 41.1829 15.2253 41.6035 15.8672C42.0352 16.498 42.3395 17.2949 42.5166 18.2578C42.6937 19.2096 42.7822 20.3219 42.7822 21.5947V30.709L45.2559 31.1074V33H35.6436V31.1074L38.0674 30.6758V22.2754C38.0674 21.3346 38.0231 20.5378 37.9346 19.8848C37.846 19.2318 37.6689 18.7061 37.4033 18.3076C37.1488 17.8981 36.7891 17.6104 36.3242 17.4443C35.8594 17.2673 35.2451 17.1842 34.4814 17.1953C34.2712 17.2064 34.0221 17.2396 33.7344 17.2949C33.4577 17.3392 33.1644 17.4111 32.8545 17.5107C32.5446 17.6104 32.2347 17.7321 31.9248 17.876C31.6149 18.0199 31.3271 18.1859 31.0615 18.374V30.6924L33.2861 31.1074V33H24.1885V31.1074ZM49.7217 17.0127H47.1982V15.4023C47.5745 15.3249 47.9121 15.2529 48.2109 15.1865C48.5208 15.109 48.792 15.026 49.0244 14.9375C49.2679 14.8379 49.4837 14.7217 49.6719 14.5889C49.8711 14.4561 50.0482 14.279 50.2031 14.0576C50.3359 13.8916 50.4743 13.6592 50.6182 13.3604C50.7731 13.0615 50.9225 12.7295 51.0664 12.3643C51.2214 11.999 51.3652 11.6117 51.498 11.2021C51.6419 10.7926 51.7692 10.3887 51.8799 9.99023H54.1709V14.4229H59.7988V17.0127H54.3203V24.0684C54.3203 25.4629 54.3424 26.5807 54.3867 27.4219C54.4421 28.263 54.5417 28.9105 54.6855 29.3643C54.8405 29.818 55.0452 30.1169 55.2998 30.2607C55.5544 30.4046 55.8919 30.4766 56.3125 30.4766C56.556 30.4766 56.8271 30.46 57.126 30.4268C57.4359 30.3825 57.7347 30.3327 58.0225 30.2773C58.3102 30.2109 58.5758 30.139 58.8193 30.0615C59.0739 29.973 59.2731 29.8844 59.417 29.7959L60.1309 31.5059C59.8763 31.7826 59.5277 32.0371 59.085 32.2695C58.6423 32.502 58.1442 32.7012 57.5908 32.8672C57.0485 33.0332 56.473 33.1605 55.8643 33.249C55.2666 33.3486 54.6745 33.3984 54.0879 33.3984C53.2799 33.3984 52.5993 33.2878 52.0459 33.0664C51.4925 32.8561 51.0443 32.5296 50.7012 32.0869C50.3581 31.6331 50.109 31.0576 49.9541 30.3604C49.7992 29.6631 49.7217 28.833 49.7217 27.8701V17.0127ZM62.4385 24.002C62.4385 22.5853 62.6654 21.2627 63.1191 20.0342C63.5729 18.8057 64.2204 17.7432 65.0615 16.8467C65.9137 15.9391 66.9375 15.2253 68.1328 14.7051C69.3392 14.1738 70.6895 13.9027 72.1836 13.8916C73.3678 13.8805 74.4027 14.041 75.2881 14.373C76.1735 14.694 76.9095 15.1589 77.4961 15.7676C78.0938 16.3652 78.5475 17.0957 78.8574 17.959C79.1673 18.8112 79.3444 19.763 79.3887 20.8145C79.4108 21.5117 79.3942 22.126 79.3389 22.6572C79.2835 23.1774 79.2282 23.6533 79.1729 24.085H67.2695C67.2695 24.1182 67.2695 24.1514 67.2695 24.1846C67.2806 24.2067 67.2861 24.2288 67.2861 24.251C67.3525 25.391 67.5407 26.3594 67.8506 27.1562C68.1715 27.9531 68.5866 28.6061 69.0957 29.1152C69.6159 29.6133 70.2135 29.9785 70.8887 30.2109C71.5638 30.4434 72.2832 30.5596 73.0469 30.5596C73.4564 30.5596 73.888 30.5374 74.3418 30.4932C74.8066 30.4489 75.2604 30.3825 75.7031 30.2939C76.1569 30.2054 76.5941 30.0947 77.0146 29.9619C77.4352 29.8291 77.8226 29.6742 78.1768 29.4971L78.9404 31.29C78.5641 31.611 78.0938 31.9098 77.5293 32.1865C76.9648 32.4521 76.3506 32.679 75.6865 32.8672C75.0225 33.0553 74.3197 33.1992 73.5781 33.2988C72.8477 33.3984 72.1172 33.4427 71.3867 33.4316C69.959 33.4206 68.6862 33.1937 67.5684 32.751C66.4616 32.3083 65.5264 31.6829 64.7627 30.875C63.999 30.0671 63.418 29.0876 63.0195 27.9365C62.6322 26.7744 62.4385 25.4629 62.4385 24.002ZM74.6738 21.7275C74.707 21.2516 74.7292 20.7591 74.7402 20.25C74.7513 19.7298 74.7181 19.2318 74.6406 18.7559C74.5742 18.2799 74.4414 17.8428 74.2422 17.4443C74.054 17.0459 73.7718 16.7194 73.3955 16.4648C73.1631 16.3099 72.8919 16.1882 72.582 16.0996C72.2721 16.0111 71.918 15.9668 71.5195 15.9668C70.8665 15.9668 70.291 16.1162 69.793 16.415C69.306 16.7139 68.891 17.1234 68.5479 17.6436C68.2048 18.1637 67.9281 18.778 67.7178 19.4863C67.5186 20.1836 67.3857 20.9307 67.3193 21.7275H74.6738ZM82.8252 31.1074L84.9834 30.7256V18.6729L82.6758 17.2119V15.585L88.0713 13.9746L89.1006 14.3066V16.7139C89.5101 16.3376 89.9805 15.9834 90.5117 15.6514C91.054 15.3193 91.624 15.0316 92.2217 14.7881C92.8304 14.5446 93.4502 14.3509 94.0811 14.207C94.7119 14.0632 95.3317 13.9857 95.9404 13.9746C96.9808 13.9635 97.8496 14.1185 98.5469 14.4395C99.2552 14.7493 99.8197 15.2253 100.24 15.8672C100.672 16.498 100.976 17.2949 101.153 18.2578C101.33 19.2096 101.419 20.3219 101.419 21.5947V30.709L103.893 31.1074V33H94.2803V31.1074L96.7041 30.6758V22.2754C96.7041 21.3346 96.6598 20.5378 96.5713 19.8848C96.4827 19.2318 96.3057 18.7061 96.04 18.3076C95.7855 17.8981 95.4258 17.6104 94.9609 17.4443C94.4961 17.2673 93.8818 17.1842 93.1182 17.1953C92.9079 17.2064 92.6589 17.2396 92.3711 17.2949C92.0944 17.3392 91.8011 17.4111 91.4912 17.5107C91.1813 17.6104 90.8714 17.7321 90.5615 17.876C90.2516 18.0199 89.9639 18.1859 89.6982 18.374V30.6924L91.9229 31.1074V33H82.8252V31.1074Z" fill="#0E1723"/>
<path d="M105.868 29.3477C106.045 29.4915 106.283 29.6576 106.582 29.8457C106.892 30.0228 107.235 30.1943 107.611 30.3604C107.999 30.5153 108.419 30.6481 108.873 30.7588C109.338 30.8695 109.819 30.9248 110.317 30.9248C110.638 30.9248 110.97 30.8971 111.313 30.8418C111.668 30.7865 111.989 30.6813 112.276 30.5264C112.564 30.3604 112.802 30.1335 112.99 29.8457C113.178 29.5579 113.272 29.1816 113.272 28.7168C113.272 28.3184 113.195 27.9531 113.04 27.6211C112.885 27.2891 112.675 26.9736 112.409 26.6748C112.144 26.3649 111.828 26.0716 111.463 25.7949C111.109 25.5072 110.727 25.2139 110.317 24.915C109.985 24.6715 109.62 24.3727 109.222 24.0186C108.834 23.6533 108.469 23.2327 108.126 22.7568C107.794 22.2809 107.517 21.7441 107.296 21.1465C107.075 20.5488 106.964 19.8903 106.964 19.1709C106.964 18.2855 107.152 17.5052 107.528 16.8301C107.905 16.1439 108.414 15.5684 109.056 15.1035C109.698 14.6387 110.445 14.29 111.297 14.0576C112.16 13.8141 113.073 13.6924 114.036 13.6924C114.479 13.6924 114.927 13.7145 115.381 13.7588C115.835 13.792 116.255 13.8418 116.643 13.9082C117.03 13.9635 117.373 14.0299 117.672 14.1074C117.971 14.1738 118.187 14.2402 118.319 14.3066L117.655 17.4111C117.578 17.3115 117.434 17.1787 117.224 17.0127C117.024 16.8467 116.77 16.6862 116.46 16.5312C116.161 16.3763 115.807 16.2435 115.397 16.1328C114.999 16.0111 114.556 15.9502 114.069 15.9502C113.715 15.9502 113.372 15.9889 113.04 16.0664C112.719 16.1328 112.426 16.249 112.16 16.415C111.895 16.5811 111.673 16.7969 111.496 17.0625C111.33 17.3281 111.23 17.6546 111.197 18.042C111.175 18.4294 111.225 18.7946 111.347 19.1377C111.468 19.4808 111.651 19.8128 111.895 20.1338C112.149 20.4548 112.453 20.7757 112.808 21.0967C113.173 21.4066 113.571 21.722 114.003 22.043C114.435 22.375 114.861 22.7347 115.281 23.1221C115.713 23.4984 116.095 23.9245 116.427 24.4004C116.759 24.8652 117.024 25.3854 117.224 25.9609C117.434 26.5254 117.539 27.1562 117.539 27.8535C117.539 28.8053 117.334 29.6243 116.925 30.3105C116.526 30.9967 115.99 31.5667 115.314 32.0205C114.639 32.4632 113.865 32.7897 112.99 33C112.116 33.2214 111.214 33.332 110.284 33.332C109.764 33.332 109.233 33.2988 108.69 33.2324C108.159 33.166 107.656 33.083 107.18 32.9834C106.704 32.8838 106.289 32.7731 105.935 32.6514C105.58 32.5186 105.326 32.3913 105.171 32.2695L105.868 29.3477ZM120.594 25.8613C120.605 24.7546 120.732 23.6865 120.976 22.6572C121.219 21.6169 121.557 20.6484 121.988 19.752C122.431 18.8444 122.962 18.0199 123.582 17.2783C124.202 16.5368 124.888 15.9004 125.641 15.3691C126.404 14.8379 127.223 14.4284 128.098 14.1406C128.983 13.8418 129.907 13.6924 130.87 13.6924C131.744 13.6924 132.497 13.7975 133.128 14.0078C133.77 14.2181 134.296 14.5114 134.705 14.8877C135.126 15.264 135.436 15.7067 135.635 16.2158C135.845 16.7139 135.956 17.2562 135.967 17.8428C135.978 18.7282 135.806 19.5306 135.452 20.25C135.109 20.9583 134.644 21.5892 134.058 22.1426C133.471 22.696 132.801 23.1774 132.049 23.5869C131.296 23.9854 130.521 24.3174 129.725 24.583C128.928 24.8376 128.142 25.0368 127.367 25.1807C126.604 25.3135 125.917 25.3854 125.309 25.3965C125.275 26.0938 125.314 26.7633 125.425 27.4053C125.547 28.0361 125.74 28.6006 126.006 29.0986C126.271 29.5856 126.62 29.973 127.052 30.2607C127.494 30.5485 128.026 30.6924 128.646 30.6924C129.719 30.6924 130.693 30.46 131.567 29.9951C132.453 29.5192 133.244 28.916 133.941 28.1855L134.854 29.7295C134.622 30.0726 134.285 30.4544 133.842 30.875C133.41 31.2956 132.879 31.6885 132.248 32.0537C131.628 32.4189 130.92 32.7233 130.123 32.9668C129.337 33.2103 128.479 33.332 127.55 33.332C126.299 33.332 125.231 33.1217 124.346 32.7012C123.46 32.2806 122.735 31.7217 122.171 31.0244C121.618 30.3271 121.214 29.5303 120.959 28.6338C120.704 27.7373 120.583 26.8132 120.594 25.8613ZM125.342 23.4873C125.729 23.4652 126.15 23.3988 126.604 23.2881C127.068 23.1774 127.533 23.0169 127.998 22.8066C128.474 22.5964 128.928 22.3473 129.359 22.0596C129.791 21.7607 130.173 21.4176 130.505 21.0303C130.848 20.6429 131.119 20.2168 131.318 19.752C131.518 19.276 131.612 18.7614 131.601 18.208C131.578 17.389 131.418 16.7858 131.119 16.3984C130.82 16 130.405 15.8008 129.874 15.8008C129.376 15.8008 128.922 15.9225 128.513 16.166C128.114 16.4095 127.755 16.736 127.434 17.1455C127.113 17.5439 126.83 18.0088 126.587 18.54C126.354 19.0713 126.15 19.6247 125.973 20.2002C125.807 20.7646 125.668 21.3346 125.558 21.9102C125.458 22.4746 125.386 23.0003 125.342 23.4873Z" fill="#10886F"/>
<path d="M5.2207 49.5464H1.93896V53H0.907715V45.1797H5.75244V46.0283H1.93896V48.7031H5.2207V49.5464ZM8.64424 53H7.61299V45.1797H8.64424V53ZM17.0951 53H16.0585L12.1215 46.9736V53H11.0849V45.1797H12.1215L16.0692 51.2329V45.1797H17.0951V53ZM23.8917 50.959H20.6153L19.8795 53H18.816L21.8023 45.1797H22.7047L25.6964 53H24.6383L23.8917 50.959ZM20.9269 50.1104H23.5855L22.2535 46.4526L20.9269 50.1104ZM33.3094 53H32.2728L28.3357 46.9736V53H27.2991V45.1797H28.3357L32.2835 51.2329V45.1797H33.3094V53ZM41.4434 50.5186C41.3467 51.3457 41.0405 51.9849 40.5249 52.436C40.0129 52.8836 39.3307 53.1074 38.4785 53.1074C37.5547 53.1074 36.8135 52.7762 36.2549 52.1138C35.6999 51.4513 35.4224 50.5651 35.4224 49.4551V48.7031C35.4224 47.9762 35.5513 47.3371 35.8091 46.7856C36.0705 46.2342 36.4393 45.8117 36.9155 45.5181C37.3918 45.2209 37.9432 45.0723 38.5698 45.0723C39.4006 45.0723 40.0666 45.305 40.5679 45.7705C41.0692 46.2324 41.361 46.8734 41.4434 47.6934H40.4067C40.3172 47.0703 40.1221 46.6191 39.8213 46.3398C39.5241 46.0605 39.1069 45.9209 38.5698 45.9209C37.911 45.9209 37.3936 46.1644 37.0176 46.6514C36.6452 47.1383 36.459 47.8312 36.459 48.73V49.4873C36.459 50.3359 36.6362 51.0109 36.9907 51.5122C37.3452 52.0135 37.8411 52.2642 38.4785 52.2642C39.0514 52.2642 39.4901 52.1353 39.7944 51.8774C40.1024 51.616 40.3065 51.1631 40.4067 50.5186H41.4434ZM44.5124 53H43.4812V45.1797H44.5124V53ZM51.3681 50.959H48.0917L47.3559 53H46.2924L49.2787 45.1797H50.1811L53.1728 53H52.1146L51.3681 50.959ZM48.4032 50.1104H51.0619L49.7299 46.4526L48.4032 50.1104ZM55.8121 52.1567H59.5182V53H54.7755V45.1797H55.8121V52.1567ZM68.8413 50.959H65.5649L64.8291 53H63.7656L66.752 45.1797H67.6543L70.646 53H69.5879L68.8413 50.959ZM65.8765 50.1104H68.5352L67.2031 46.4526L65.8765 50.1104ZM72.2487 53V45.1797H74.4563C75.1366 45.1797 75.7382 45.3301 76.2609 45.6309C76.7837 45.9316 77.1866 46.3595 77.4694 46.9146C77.7559 47.4696 77.9009 48.1069 77.9045 48.8267V49.3262C77.9045 50.0638 77.7613 50.7101 77.4748 51.2651C77.1919 51.8201 76.7855 52.2463 76.2556 52.5435C75.7292 52.8407 75.1151 52.9928 74.4133 53H72.2487ZM73.28 46.0283V52.1567H74.3649C75.1599 52.1567 75.7775 51.9097 76.218 51.4155C76.662 50.9214 76.884 50.2178 76.884 49.3047V48.8481C76.884 47.9601 76.6745 47.2708 76.2556 46.7803C75.8402 46.2861 75.2494 46.0355 74.4831 46.0283H73.28ZM82.4882 51.6304L84.7226 45.1797H85.8505L82.9501 53H82.037L79.142 45.1797H80.2645L82.4882 51.6304ZM88.5597 53H87.5284V45.1797H88.5597V53ZM93.3045 49.5142C92.42 49.2599 91.7755 48.9484 91.3709 48.5796C90.9699 48.2072 90.7693 47.7489 90.7693 47.2046C90.7693 46.5887 91.0146 46.0802 91.5052 45.6792C91.9993 45.2746 92.6403 45.0723 93.428 45.0723C93.9651 45.0723 94.4432 45.1761 94.8621 45.3838C95.2846 45.5915 95.6105 45.8779 95.8396 46.2432C96.0724 46.6084 96.1888 47.0076 96.1888 47.4409H95.1521C95.1521 46.9683 95.0018 46.5977 94.701 46.3291C94.4002 46.057 93.9759 45.9209 93.428 45.9209C92.9196 45.9209 92.5221 46.0337 92.2356 46.2593C91.9528 46.4813 91.8113 46.791 91.8113 47.1885C91.8113 47.5072 91.9456 47.7775 92.2142 47.9995C92.4863 48.2179 92.9464 48.4185 93.5945 48.6011C94.2462 48.7837 94.7547 48.986 95.1199 49.208C95.4887 49.4264 95.7609 49.6825 95.9363 49.9761C96.1154 50.2697 96.2049 50.6152 96.2049 51.0127C96.2049 51.6465 95.9578 52.1549 95.4637 52.5381C94.9695 52.9176 94.3089 53.1074 93.4817 53.1074C92.9446 53.1074 92.4433 53.0054 91.9778 52.8013C91.5123 52.5936 91.1525 52.3107 90.8982 51.9526C90.6476 51.5946 90.5223 51.1882 90.5223 50.7334H91.5589C91.5589 51.2061 91.7325 51.5802 92.0799 51.856C92.4308 52.1281 92.8981 52.2642 93.4817 52.2642C94.026 52.2642 94.4432 52.1532 94.7332 51.9312C95.0232 51.7091 95.1683 51.4066 95.1683 51.0234C95.1683 50.6403 95.034 50.3449 94.7654 50.1372C94.4969 49.9259 94.0099 49.7183 93.3045 49.5142ZM104.097 49.3423C104.097 50.1086 103.968 50.7782 103.71 51.3511C103.453 51.9204 103.087 52.3555 102.615 52.6562C102.142 52.957 101.591 53.1074 100.96 53.1074C100.345 53.1074 99.7985 52.957 99.3223 52.6562C98.846 52.3519 98.4754 51.9204 98.2104 51.3618C97.9491 50.7996 97.8148 50.1497 97.8076 49.4121V48.8481C97.8076 48.0962 97.9383 47.432 98.1997 46.8555C98.4611 46.279 98.8299 45.8385 99.3062 45.5342C99.786 45.2262 100.334 45.0723 100.95 45.0723C101.576 45.0723 102.128 45.2244 102.604 45.5288C103.084 45.8296 103.453 46.2682 103.71 46.8447C103.968 47.4176 104.097 48.0854 104.097 48.8481V49.3423ZM103.071 48.8374C103.071 47.91 102.885 47.1992 102.513 46.7051C102.14 46.2074 101.619 45.9585 100.95 45.9585C100.298 45.9585 99.7842 46.2074 99.4082 46.7051C99.0358 47.1992 98.8442 47.8867 98.8335 48.7676V49.3423C98.8335 50.241 99.0215 50.9482 99.3975 51.4639C99.777 51.9759 100.298 52.2319 100.96 52.2319C101.626 52.2319 102.142 51.9902 102.507 51.5068C102.873 51.0199 103.061 50.3234 103.071 49.4175V48.8374ZM109.062 49.8364H107.225V53H106.189V45.1797H108.778C109.658 45.1797 110.335 45.3802 110.808 45.7812C111.284 46.1823 111.522 46.766 111.522 47.5322C111.522 48.0192 111.39 48.4435 111.125 48.8052C110.863 49.1668 110.498 49.4372 110.029 49.6162L111.866 52.9355V53H110.759L109.062 49.8364ZM107.225 48.9932H108.81C109.322 48.9932 109.728 48.8607 110.029 48.5957C110.333 48.3307 110.486 47.9762 110.486 47.5322C110.486 47.0488 110.341 46.6782 110.05 46.4204C109.764 46.1626 109.349 46.0319 108.804 46.0283H107.225V48.9932Z" fill="#0E1723"/>
</svg>
